<svg xmlns="http://www.w3.org/2000/svg" viewBox="0 0 1600 690" width="1600" height="690" font-family='"IBM Plex Sans KR","Apple SD Gothic Neo","Noto Sans KR","Malgun Gothic",sans-serif'><defs><marker id="ah" markerWidth="10" markerHeight="10" refX="9" refY="5" orient="auto"><path d="M0,0 L10,5 L0,10 z" fill="#1B2330"/></marker></defs><rect width="1600" height="690" fill="#FFFFFF"/>
<rect x="60" y="90" width="1480" height="216" rx="10" fill="#EEF3F8"/>
<text x="78" y="116" font-size="16" font-weight="600" fill="#2E7D5B">리서처 — 웹 (b)</text>
<rect x="60" y="320" width="1480" height="320" rx="10" fill="#EEF3F8"/>
<text x="78" y="346" font-size="16" font-weight="600" fill="#1F5F8B">서버 · AI 모듈 (c)</text>
<rect x="120" y="136" width="240" height="80" rx="8" fill="#FFFFFF" stroke="#2E7D5B" stroke-width="2"/>
<text x="240.0" y="162" font-size="17" font-weight="700" fill="#1B2330" text-anchor="middle">① URL · Task · Persona 입력</text>
<text x="240.0" y="186" font-size="15" fill="#6B7686" text-anchor="middle">멤버십 해지 Task · Persona 3종</text>
<rect x="680" y="136" width="240" height="80" rx="8" fill="#FFFFFF" stroke="#2E7D5B" stroke-width="2"/>
<text x="800.0" y="162" font-size="17" font-weight="700" fill="#1B2330" text-anchor="middle">⑨ Before / After 비교</text>
<text x="800.0" y="186" font-size="15" fill="#6B7686" text-anchor="middle">성공률 · 행동 수 · 백트래킹</text>
<rect x="960" y="136" width="240" height="80" rx="8" fill="#FFFFFF" stroke="#2E7D5B" stroke-width="2"/>
<text x="1080.0" y="162" font-size="17" font-weight="700" fill="#1B2330" text-anchor="middle">⑩ 실사용자 검증</text>
<text x="1080.0" y="186" font-size="15" fill="#6B7686" text-anchor="middle">5~10명 · AI 예측과 대조</text>
<rect x="1240" y="136" width="240" height="80" rx="8" fill="#FFFFFF" stroke="#2E7D5B" stroke-width="2"/>
<text x="1360.0" y="162" font-size="17" font-weight="700" fill="#1B2330" text-anchor="middle">⑦ 승인 / 무시</text>
<text x="1360.0" y="186" font-size="15" fill="#6B7686" text-anchor="middle">3안 비교 → 선택 (사람)</text>
<rect x="120" y="366" width="240" height="80" rx="8" fill="#FFFFFF" stroke="#1F5F8B" stroke-width="2"/>
<text x="240.0" y="392" font-size="17" font-weight="700" fill="#1B2330" text-anchor="middle">② 가상 사용자 생성</text>
<text x="240.0" y="416" font-size="15" fill="#6B7686" text-anchor="middle">Persona 별 프롬프트</text>
<rect x="400" y="366" width="240" height="80" rx="8" fill="#FFFFFF" stroke="#1F5F8B" stroke-width="2"/>
<text x="520.0" y="392" font-size="17" font-weight="700" fill="#1B2330" text-anchor="middle">③ 브라우저 탐색</text>
<text x="520.0" y="416" font-size="15" fill="#6B7686" text-anchor="middle">click / type / scroll / back</text>
<rect x="680" y="366" width="240" height="80" rx="8" fill="#FFFFFF" stroke="#1F5F8B" stroke-width="2"/>
<text x="800.0" y="392" font-size="17" font-weight="700" fill="#1B2330" text-anchor="middle">④ 행동 로그 수집</text>
<text x="800.0" y="416" font-size="15" fill="#6B7686" text-anchor="middle">경로 · 왕복 · 반복 · 성공</text>
<rect x="960" y="366" width="240" height="80" rx="8" fill="#FFFFFF" stroke="#1F5F8B" stroke-width="2"/>
<text x="1080.0" y="392" font-size="17" font-weight="700" fill="#1B2330" text-anchor="middle">⑤ Friction 진단</text>
<text x="1080.0" y="416" font-size="15" fill="#6B7686" text-anchor="middle">Taxonomy · 근거 · 심각도</text>
<rect x="1240" y="366" width="240" height="80" rx="8" fill="#FFFFFF" stroke="#1F5F8B" stroke-width="2"/>
<text x="1360.0" y="392" font-size="17" font-weight="700" fill="#1B2330" text-anchor="middle">⑥ 개선안 3안</text>
<text x="1360.0" y="416" font-size="15" fill="#6B7686" text-anchor="middle">영향 / 수정 비용</text>
<rect x="960" y="500" width="240" height="80" rx="8" fill="#FFFFFF" stroke="#1F5F8B" stroke-width="2"/>
<text x="1080.0" y="526" font-size="17" font-weight="700" fill="#1B2330" text-anchor="middle">⑧ DOM 패치 → 재실험</text>
<text x="1080.0" y="550" font-size="15" fill="#6B7686" text-anchor="middle">같은 Persona 재투입</text>
<line x1="240.0" y1="216" x2="240.0" y2="366" stroke="#1B2330" stroke-width="2" marker-end="url(#ah)"/>
<line x1="360" y1="406" x2="400" y2="406" stroke="#1B2330" stroke-width="2" marker-end="url(#ah)"/>
<line x1="640" y1="406" x2="680" y2="406" stroke="#1B2330" stroke-width="2" marker-end="url(#ah)"/>
<line x1="920" y1="406" x2="960" y2="406" stroke="#1B2330" stroke-width="2" marker-end="url(#ah)"/>
<line x1="1200" y1="406" x2="1240" y2="406" stroke="#1B2330" stroke-width="2" marker-end="url(#ah)"/>
<line x1="1360.0" y1="366" x2="1360.0" y2="216" stroke="#1B2330" stroke-width="2" marker-end="url(#ah)"/>
<text x="1370.0" y="291.0" font-size="14" fill="#1B2330">개선안 도착</text>
<line x1="1240" y1="208" x2="1220" y2="208" stroke="#B8432F" stroke-width="2"/>
<line x1="1220" y1="208" x2="1220" y2="540" stroke="#B8432F" stroke-width="2"/>
<line x1="1220" y1="540" x2="1200" y2="540" stroke="#B8432F" stroke-width="2" marker-end="url(#ah)"/>
<text x="1232" y="366" font-size="14" fill="#B8432F">승인</text>
<line x1="960" y1="540" x2="940" y2="540" stroke="#1B2330" stroke-width="2" stroke-dasharray="6,4"/>
<line x1="940" y1="540" x2="940" y2="194" stroke="#1B2330" stroke-width="2" stroke-dasharray="6,4"/>
<line x1="940" y1="194" x2="920" y2="194" stroke="#1B2330" stroke-width="2" marker-end="url(#ah)" stroke-dasharray="6,4"/>
<text x="952" y="366" font-size="14" fill="#1B2330">결과</text>
<line x1="1080.0" y1="580" x2="1080.0" y2="608" stroke="#1B2330" stroke-width="2" stroke-dasharray="6,4"/>
<line x1="1080.0" y1="608" x2="520.0" y2="608" stroke="#1B2330" stroke-width="2" stroke-dasharray="6,4"/>
<line x1="520.0" y1="608" x2="520.0" y2="446" stroke="#1B2330" stroke-width="2" marker-end="url(#ah)" stroke-dasharray="6,4"/>
<text x="520.0" y="519.0" font-size="14" fill="#1B2330" text-anchor="middle">③~⑤ 반복</text>
<line x1="920" y1="158" x2="960" y2="158" stroke="#1B2330" stroke-width="2" marker-end="url(#ah)"/>
</svg>